<svg viewBox="0 0 283.43 161.74" xmlns="http://www.w3.org/2000/svg" xmlns:xlink="http://www.w3.org/1999/xlink" id="Calque_1" overflow="hidden"><defs></defs><path d="M19.58 88.13 13.1 102.62 6.72 88.23 3.88 102.12 1.03 102.12 5.93 80.12 13.24 96.4 20.42 80.12 25.51 102.12 22.57 102.12 19.59 88.13Z" stroke-width="0"/><path d="M29.01 80.62 41.98 80.62 41.98 83.3 31.86 83.3 31.86 89.45 40.2 89.45 40.2 92.06 31.86 92.06 31.86 99.44 42.84 99.44 41.62 102.12 29.02 102.12 29.02 80.62Z" stroke-width="0"/><path d="M46.28 80.62 54.05 80.62C61.03 80.62 65.07 85.42 65.07 91.37 65.07 97.32 61.03 102.12 54.05 102.12L46.28 102.12 46.28 80.62ZM49.12 83.17 49.12 99.58 54.08 99.58C58.98 99.58 61.85 96.77 61.85 91.38 61.85 85.99 58.97 83.18 54.21 83.18L49.12 83.18Z" stroke-width="0"/><path d="M68.94 80.62 71.79 80.62 71.79 102.12 68.94 102.12 68.94 80.62Z" stroke-width="0"/><path d="M88.75 94.81 80.65 94.81 77.34 102.12 74.46 102.12 84.71 80.02 84.81 80.02 95.2 102.12 92.09 102.12 88.75 94.81ZM87.66 92.37 84.72 85.89 81.74 92.37 87.66 92.37Z" stroke-width="0"/><path d="M2.51 110.18 9.36 110.18C14.49 110.18 16.87 112.26 16.87 116.03 16.87 118.97 14.55 121.65 10.32 121.95L14.29 125.99C16.84 128.6 18.19 130.19 19.45 131.68L15.74 131.68C14.68 130.19 13.16 128.57 11.84 127.18L5.36 120.53 5.36 131.68 2.52 131.68 2.52 110.18ZM5.36 112.89 5.36 119.9 9 119.9C12.18 119.9 13.8 118.58 13.8 116.13 13.8 114.11 12.38 112.89 10.19 112.89L5.36 112.89Z" stroke-width="0"/><path d="M21.47 110.18 34.44 110.18 34.44 112.86 24.32 112.86 24.32 119.01 32.66 119.01 32.66 121.62 24.32 121.62 24.32 129 35.3 129 34.08 131.68 21.48 131.68 21.48 110.18Z" stroke-width="0"/><path d="M41.65 114.81C41.65 116.23 42.21 117.06 45.82 119.01 49.49 120.99 50.88 122.98 50.88 125.92 50.88 129.43 47.87 132.14 43.7 132.14 40.89 132.14 38.7 131.51 37.15 130.39L37.15 127.02C39.63 128.97 41.68 129.63 43.53 129.63 46.41 129.63 48.03 128.08 48.03 126.06 48.03 124.34 47.2 123.02 43.8 121.2 40.23 119.28 38.8 117.76 38.8 115.18 38.8 112.07 40.98 109.75 45.15 109.75 47.17 109.75 48.69 110.31 50.05 111.04L50.05 114.22C48.83 113.06 46.68 112.27 45.12 112.27 42.77 112.27 41.65 113.33 41.65 114.82Z" stroke-width="0"/><path d="M54.75 110.18 67.72 110.18 67.72 112.86 57.6 112.86 57.6 119.01 65.94 119.01 65.94 121.62 57.6 121.62 57.6 129 68.58 129 67.36 131.68 54.76 131.68 54.76 110.18Z" stroke-width="0"/><path d="M83.76 124.37 75.66 124.37 72.35 131.68 69.47 131.68 79.72 109.58 79.82 109.58 90.21 131.68 87.1 131.68 83.76 124.37ZM82.67 121.93 79.73 115.45 76.75 121.93 82.67 121.93Z" stroke-width="0"/><path d="M92.82 110.18 99.67 110.18C104.8 110.18 107.18 112.26 107.18 116.03 107.18 118.97 104.86 121.65 100.63 121.95L104.6 125.99C107.15 128.6 108.5 130.19 109.76 131.68L106.05 131.68C104.99 130.19 103.47 128.57 102.15 127.18L95.67 120.53 95.67 131.68 92.82 131.68 92.82 110.18ZM95.67 112.89 95.67 119.9 99.31 119.9C102.49 119.9 104.11 118.58 104.11 116.13 104.11 114.11 102.69 112.89 100.5 112.89L95.67 112.89Z" stroke-width="0"/><path d="M121.2 129.47C123.88 129.47 125.76 128.28 126.86 126.56L130.3 126.56C128.61 130.13 125.3 132.18 121.17 132.18 114.98 132.18 110.25 127.12 110.25 120.93 110.25 114.74 114.68 109.68 120.87 109.68 125.34 109.68 128.81 112.03 130.36 116.13L126.95 116.13C125.92 113.81 123.87 112.39 120.9 112.39 116.5 112.39 113.39 115.47 113.39 120.92 113.39 126.37 116.8 129.46 121.2 129.46Z" stroke-width="0"/><path d="M133.87 110.18 136.72 110.18 136.72 119.24 148.5 119.24 148.5 110.18 151.35 110.18 151.35 131.68 148.5 131.68 148.5 121.92 136.72 121.92 136.72 131.68 133.87 131.68 133.87 110.18Z" stroke-width="0"/><path d="M2.51 139.74 5.35 139.74 5.35 161.24 2.51 161.24 2.51 139.74Z" stroke-width="0"/><path d="M27.46 147.25 20.98 161.74 14.6 147.35 11.76 161.24 8.91 161.24 13.81 139.24 21.12 155.52 28.3 139.24 33.39 161.24 30.45 161.24 27.47 147.25Z" stroke-width="0"/><path d="M48.83 153.93 40.73 153.93 37.42 161.24 34.54 161.24 44.79 139.14 44.89 139.14 55.28 161.24 52.17 161.24 48.83 153.93ZM47.73 151.49 44.79 145.01 41.81 151.49 47.73 151.49Z" stroke-width="0"/><path d="M69.53 150 75.82 150 75.82 157.24C74.23 159.89 70.76 161.74 66.62 161.74 60.4 161.74 55.74 156.61 55.74 150.49 55.74 144.37 60.11 139.24 66.33 139.24 70.76 139.24 74.24 141.46 75.86 145.69L72.58 145.69C71.46 143.01 69.44 141.95 66.33 141.95 62 141.95 58.89 144.89 58.89 150.48 58.89 156.07 62.3 159.02 66.63 159.02 69.9 159.02 72.15 157.8 73.18 156.14L73.18 152.57 68.35 152.57 69.54 149.99Z" stroke-width="0"/><path d="M80.05 139.74 93.02 139.74 93.02 142.42 82.9 142.42 82.9 148.57 91.24 148.57 91.24 151.18 82.9 151.18 82.9 158.56 93.88 158.56 92.66 161.24 80.06 161.24 80.06 139.74Z" stroke-width="0"/><path d="M231.58 12.04C231.58 3.01 232.87 1.81 240.26 1.81L240.26 0 213.86 0 213.86 1.8C221.25 1.8 222.55 3.01 222.55 12.03L222.55 52.45C222.55 61.48 221.26 62.68 213.86 62.68L213.86 64.49 240.26 64.49 240.26 62.68C232.86 62.68 231.58 61.48 231.58 52.45L231.58 35.42C231.58 33.7 232.44 33.02 234.42 33.02L262.89 33.02C265.04 33.02 265.73 33.88 265.73 36.03L265.73 52.45C265.73 61.48 264.44 62.68 257.04 62.68L257.04 64.49 283.44 64.49 283.44 62.68C276.04 62.68 274.75 61.48 274.75 52.45L274.75 12.04C274.75 3.01 276.04 1.81 283.44 1.81L283.44 0 257.04 0 257.04 1.8C264.43 1.8 265.73 3.01 265.73 12.03L265.73 27.08C265.73 29.4 265.13 30.09 262.98 30.09L234.34 30.09C232.36 30.09 231.59 29.57 231.59 27.85L231.59 12.02ZM205.01 1.72 205.01 0 188.93 0 165.28 51.17 140.68 0 124.25 0 124.25 1.72C131.21 1.72 132.76 3.78 132.76 10.15L132.76 52.46C132.76 61.75 131.04 62.69 124.25 62.69L124.25 64.5 144.2 64.5 144.2 62.69C137.24 62.69 135.78 61.75 135.78 52.46L135.78 10.23 160.72 64.49 162.27 64.49 187.21 10.23 187.21 52.45C187.21 61.74 185.92 62.68 178.1 62.68L178.1 64.49 205.02 64.49 205.02 62.68C197.62 62.68 196.33 61.48 196.33 52.45L196.33 9.29C196.33 3.62 198.05 1.73 205.02 1.73M0 0 0 1.72C7.05 1.72 8.69 3.44 8.69 9.28L8.69 52.45C8.69 61.74 7.4 62.68 0 62.68L0 64.49 49.45 64.49 55.04 46.95 53.75 46.61C48.42 59.85 44.72 61.74 33.54 61.74L26.75 61.74C18.15 61.74 17.8 61.48 17.8 50.91L17.8 11.61C17.8 3.53 19.35 1.72 28.03 1.72L28.03 0 0 0ZM98.2 1.72C101.64 1.72 104.3 3.61 104.3 7.22 104.3 9.12 103.53 11.7 102.15 14.96L86.93 52.2 69.82 13.5C68.53 10.49 67.84 8.43 67.84 6.28 67.84 3.87 69.82 1.72 74.12 1.72L74.12 0 49.01 0 49.01 1.72C54.08 1.72 55.63 3.52 58.64 10.41L82.8 65.96 84.18 65.96 106.71 11.1C109.37 4.56 112.99 1.73 115.74 1.73L115.74 0 98.2 0 98.2 1.72Z" stroke-width="0"/></svg>
